<svg width="157" height="41" viewBox="0 0 157 41" fill="none" xmlns="http://www.w3.org/2000/svg">
<g filter="url(#filter0_d_2410_25)">
<path d="M8.16 33.784C6.98667 33.784 6.10133 33.5813 5.504 33.176C4.90667 32.792 4.608 32.1413 4.608 31.224C4.608 31.16 4.66133 31.128 4.768 31.128C4.91733 31.128 5.184 31.1813 5.568 31.288C5.952 31.3947 6.688 31.448 7.776 31.448C9.61067 31.448 11.3067 31.2453 12.864 30.84C14.4213 30.4133 15.7653 29.8373 16.896 29.112C18.048 28.3867 18.9333 27.576 19.552 26.68C20.192 25.7627 20.512 24.824 20.512 23.864C20.512 22.9893 20.2667 22.2853 19.776 21.752C19.2853 21.2187 18.6347 20.8133 17.824 20.536C17.0347 20.2587 16.1707 20.0773 15.232 19.992C14.2933 19.8853 13.3653 19.832 12.448 19.832C12.0427 19.832 11.6267 19.8427 11.2 19.864C10.7947 19.864 10.4107 19.864 10.048 19.864C9.55733 21.592 9.07733 23.3307 8.608 25.08C8.13867 26.8293 7.65867 28.5253 7.168 30.168C6.63467 30.168 6.18667 30.0187 5.824 29.72C5.46133 29.4213 5.28 29.0587 5.28 28.632C5.28 28.376 5.33333 28.0773 5.44 27.736C5.54667 27.3947 5.64267 27.0853 5.728 26.808C5.856 26.3813 6.08 25.6667 6.4 24.664C6.72 23.6613 7.104 22.488 7.552 21.144C8.02133 19.8 8.53333 18.392 9.088 16.92C9.64267 15.448 10.208 14.008 10.784 12.6C11.3813 11.192 11.9573 9.944 12.512 8.856C11.616 9.00533 10.8587 9.21866 10.24 9.496C9.64267 9.77333 9.17333 10.0293 8.832 10.264C8.49067 10.4773 8.24533 10.584 8.096 10.584C7.98933 10.584 7.85067 10.5413 7.68 10.456C7.53067 10.3493 7.392 10.232 7.264 10.104C7.136 9.95467 7.072 9.82667 7.072 9.72C8.13867 9.272 9.248 8.86667 10.4 8.504C11.5733 8.14133 12.992 7.96 14.656 7.96C15.36 7.96 16.1387 8.024 16.992 8.152C17.8453 8.25867 18.656 8.49333 19.424 8.856C20.192 9.19733 20.8213 9.70933 21.312 10.392C21.8027 11.0533 22.048 11.9387 22.048 13.048C22.048 14.0933 21.824 14.9893 21.376 15.736C20.928 16.4613 20.3413 17.0693 19.616 17.56C18.8907 18.0293 18.1013 18.4027 17.248 18.68C16.3947 18.9573 15.552 19.16 14.72 19.288C16.2987 19.3733 17.568 19.5973 18.528 19.96C19.5093 20.3227 20.2453 20.76 20.736 21.272C21.248 21.7627 21.5893 22.2853 21.76 22.84C21.9307 23.3947 22.016 23.928 22.016 24.44C22.016 25.6773 21.696 26.7973 21.056 27.8C20.416 28.8027 19.5733 29.6773 18.528 30.424C17.4827 31.1707 16.3413 31.7893 15.104 32.28C13.8667 32.792 12.64 33.1653 11.424 33.4C10.208 33.656 9.12 33.784 8.16 33.784ZM10.24 19.128C11.4133 19.0853 12.576 18.9573 13.728 18.744C14.9013 18.5093 15.968 18.1467 16.928 17.656C17.888 17.1653 18.656 16.5253 19.232 15.736C19.8293 14.9467 20.128 13.9653 20.128 12.792C20.128 11.6827 19.8613 10.8293 19.328 10.232C18.816 9.63467 18.144 9.21867 17.312 8.984C16.5013 8.74933 15.6373 8.632 14.72 8.632C14.6133 8.632 14.5067 8.632 14.4 8.632C14.3147 8.632 14.2187 8.64267 14.112 8.664C13.344 10.1573 12.64 11.8 12 13.592C11.3813 15.384 10.7947 17.2293 10.24 19.128ZM29.3247 32.408C28.0234 32.408 27.0421 32.0453 26.3807 31.32C25.7407 30.616 25.4207 29.7413 25.4207 28.696C25.4207 27.736 25.6554 26.7227 26.1247 25.656C26.6154 24.5893 27.2554 23.5867 28.0447 22.648C28.8554 21.7093 29.7407 20.952 30.7007 20.376C31.6607 19.7787 32.6101 19.48 33.5487 19.48C34.0394 19.48 34.4874 19.608 34.8927 19.864C35.3194 20.12 35.5328 20.6427 35.5328 21.432C35.5328 22.2427 35.2874 23.0107 34.7968 23.736C34.3274 24.44 33.6981 25.0693 32.9088 25.624C32.1408 26.1787 31.2874 26.6373 30.3487 27C29.4314 27.3413 28.5141 27.5547 27.5967 27.64C27.5541 27.8533 27.5221 28.056 27.5007 28.248C27.4794 28.44 27.4687 28.6213 27.4687 28.792C27.4687 29.112 27.5007 29.432 27.5647 29.752C27.6501 30.072 27.7887 30.3707 27.9807 30.648C28.1727 30.904 28.4287 31.1067 28.7487 31.256C29.0901 31.4053 29.5061 31.48 29.9967 31.48C30.9141 31.48 31.8207 31.224 32.7168 30.712C33.6128 30.1787 34.4448 29.4853 35.2128 28.632C35.9808 27.7787 36.6314 26.84 37.1648 25.816L37.5487 26.104C36.9728 27.384 36.2368 28.4933 35.3407 29.432C34.4661 30.3707 33.5061 31.096 32.4608 31.608C31.4367 32.1413 30.3914 32.408 29.3247 32.408ZM27.7567 27.032C28.3327 26.84 28.9834 26.5627 29.7087 26.2C30.4341 25.816 31.1274 25.368 31.7887 24.856C32.4714 24.344 33.0261 23.7787 33.4528 23.16C33.9008 22.5413 34.1248 21.8907 34.1248 21.208C34.1248 20.9733 34.0821 20.792 33.9967 20.664C33.9114 20.536 33.7301 20.472 33.4528 20.472C32.9408 20.472 32.3967 20.6747 31.8207 21.08C31.2447 21.464 30.6901 21.976 30.1567 22.616C29.6234 23.256 29.1434 23.96 28.7167 24.728C28.2901 25.496 27.9701 26.264 27.7567 27.032Z" fill="#222222"/>
<path d="M53.1432 31V7.72727H61.2795C62.9008 7.72727 64.2379 8.00758 65.2909 8.56818C66.3439 9.12121 67.128 9.86742 67.6432 10.8068C68.1583 11.7386 68.4159 12.7727 68.4159 13.9091C68.4159 14.9091 68.2379 15.7348 67.8818 16.3864C67.5333 17.0379 67.0712 17.553 66.4955 17.9318C65.9273 18.3106 65.3098 18.5909 64.6432 18.7727V19C65.3553 19.0455 66.0712 19.2955 66.7909 19.75C67.5106 20.2045 68.1129 20.8561 68.5977 21.7045C69.0826 22.553 69.325 23.5909 69.325 24.8182C69.325 25.9848 69.0598 27.0341 68.5295 27.9659C67.9992 28.8977 67.1621 29.6364 66.0182 30.1818C64.8742 30.7273 63.3856 31 61.5523 31H53.1432ZM55.9614 28.5H61.5523C63.3932 28.5 64.7 28.1439 65.4727 27.4318C66.253 26.7121 66.6432 25.8409 66.6432 24.8182C66.6432 24.0303 66.4424 23.303 66.0409 22.6364C65.6394 21.9621 65.0674 21.4242 64.325 21.0227C63.5826 20.6136 62.7038 20.4091 61.6886 20.4091H55.9614V28.5ZM55.9614 17.9545H61.1886C62.0371 17.9545 62.8023 17.7879 63.4841 17.4545C64.1735 17.1212 64.7189 16.6515 65.1205 16.0455C65.5295 15.4394 65.7341 14.7273 65.7341 13.9091C65.7341 12.8864 65.378 12.0189 64.6659 11.3068C63.9538 10.5871 62.825 10.2273 61.2795 10.2273H55.9614V17.9545ZM83.083 31.3636C81.5072 31.3636 80.1246 30.9886 78.9352 30.2386C77.7534 29.4886 76.8292 28.4394 76.1625 27.0909C75.5034 25.7424 75.1739 24.1667 75.1739 22.3636C75.1739 20.5455 75.5034 18.9583 76.1625 17.6023C76.8292 16.2462 77.7534 15.1932 78.9352 14.4432C80.1246 13.6932 81.5072 13.3182 83.083 13.3182C84.6587 13.3182 86.0375 13.6932 87.2193 14.4432C88.4087 15.1932 89.333 16.2462 89.992 17.6023C90.6587 18.9583 90.992 20.5455 90.992 22.3636C90.992 24.1667 90.6587 25.7424 89.992 27.0909C89.333 28.4394 88.4087 29.4886 87.2193 30.2386C86.0375 30.9886 84.6587 31.3636 83.083 31.3636ZM83.083 28.9545C84.2799 28.9545 85.2648 28.6477 86.0375 28.0341C86.8102 27.4205 87.3822 26.6136 87.7534 25.6136C88.1246 24.6136 88.3102 23.5303 88.3102 22.3636C88.3102 21.197 88.1246 20.1098 87.7534 19.1023C87.3822 18.0947 86.8102 17.2803 86.0375 16.6591C85.2648 16.0379 84.2799 15.7273 83.083 15.7273C81.886 15.7273 80.9011 16.0379 80.1284 16.6591C79.3557 17.2803 78.7837 18.0947 78.4125 19.1023C78.0413 20.1098 77.8557 21.197 77.8557 22.3636C77.8557 23.5303 78.0413 24.6136 78.4125 25.6136C78.7837 26.6136 79.3557 27.4205 80.1284 28.0341C80.9011 28.6477 81.886 28.9545 83.083 28.9545ZM100.168 7.72727V31H97.4858V7.72727H100.168ZM114.07 31.3636C112.616 31.3636 111.332 30.9962 110.218 30.2614C109.105 29.5189 108.233 28.4735 107.605 27.125C106.976 25.7689 106.661 24.1667 106.661 22.3182C106.661 20.4848 106.976 18.8939 107.605 17.5455C108.233 16.197 109.108 15.1553 110.23 14.4205C111.351 13.6856 112.646 13.3182 114.116 13.3182C115.252 13.3182 116.15 13.5076 116.809 13.8864C117.476 14.2576 117.983 14.6818 118.332 15.1591C118.688 15.6288 118.964 16.0152 119.161 16.3182H119.389V7.72727H122.07V31H119.48V28.3182H119.161C118.964 28.6364 118.684 29.0379 118.32 29.5227C117.957 30 117.438 30.428 116.764 30.8068C116.089 31.178 115.192 31.3636 114.07 31.3636ZM114.434 28.9545C115.51 28.9545 116.419 28.6742 117.161 28.1136C117.904 27.5455 118.468 26.7614 118.855 25.7614C119.241 24.7538 119.434 23.5909 119.434 22.2727C119.434 20.9697 119.245 19.8295 118.866 18.8523C118.487 17.8674 117.927 17.1023 117.184 16.5568C116.442 16.0038 115.525 15.7273 114.434 15.7273C113.298 15.7273 112.351 16.0189 111.593 16.6023C110.843 17.178 110.279 17.9621 109.9 18.9545C109.529 19.9394 109.343 21.0455 109.343 22.2727C109.343 23.5152 109.533 24.6439 109.911 25.6591C110.298 26.6667 110.866 27.4697 111.616 28.0682C112.373 28.6591 113.313 28.9545 114.434 28.9545Z" fill="#49A6E9"/>
</g>
<defs>
<filter id="filter0_d_2410_25" x="0.607422" y="6.72729" width="125.463" height="34.0568" filterUnits="userSpaceOnUse" color-interpolation-filters="sRGB">
<feFlood flood-opacity="0" result="BackgroundImageFix"/>
<feColorMatrix in="SourceAlpha" type="matrix" values="0 0 0 0 0 0 0 0 0 0 0 0 0 0 0 0 0 0 127 0" result="hardAlpha"/>
<feOffset dy="3"/>
<feGaussianBlur stdDeviation="2"/>
<feComposite in2="hardAlpha" operator="out"/>
<feColorMatrix type="matrix" values="0 0 0 0 0.133333 0 0 0 0 0.133333 0 0 0 0 0.133333 0 0 0 0.25 0"/>
<feBlend mode="normal" in2="BackgroundImageFix" result="effect1_dropShadow_2410_25"/>
<feBlend mode="normal" in="SourceGraphic" in2="effect1_dropShadow_2410_25" result="shape"/>
</filter>
</defs>
</svg>
